<?xml version="1.0" encoding="UTF-8"?>
<svg id="Layer_1" data-name="Layer 1" xmlns="http://www.w3.org/2000/svg" viewBox="0 0 570.79 485.38">
  <defs>
    <style>
      .cls-1 {
        fill: #190d9b;
      }

      .cls-1, .cls-2 {
        stroke-width: 0px;
      }

      .cls-2 {
        fill: #f05423;
      }
    </style>
  </defs>
  <g>
    <g>
      <circle class="cls-2" cx="221.49" cy="29.94" r="10.72"/>
      <circle class="cls-2" cx="202.72" cy="59.13" r="10.72"/>
      <circle class="cls-2" cx="249.79" cy="90.12" r="10.72"/>
      <circle class="cls-2" cx="207.79" cy="118.72" r="10.72"/>
      <g>
        <circle class="cls-2" cx="373.42" cy="59.13" r="10.72"/>
        <circle class="cls-2" cx="326.36" cy="90.12" r="10.72"/>
        <circle class="cls-2" cx="368.36" cy="118.72" r="10.72"/>
      </g>
      <g>
        <circle class="cls-2" cx="301.33" cy="173.53" r="10.72"/>
        <circle class="cls-2" cx="348.4" cy="142.55" r="10.72"/>
        <circle class="cls-2" cx="306.4" cy="113.95" r="10.72"/>
      </g>
      <g>
        <circle class="cls-2" cx="274.67" cy="173.53" r="10.72"/>
        <circle class="cls-2" cx="227.6" cy="142.55" r="10.72"/>
        <circle class="cls-2" cx="269.6" cy="113.95" r="10.72"/>
      </g>
      <circle class="cls-2" cx="354.81" cy="29.94" r="10.72"/>
      <circle class="cls-2" cx="269.01" cy="10.72" r="10.72"/>
      <circle class="cls-2" cx="301.93" cy="10.72" r="10.72"/>
      <circle class="cls-2" cx="269.01" cy="61.22" r="10.72"/>
      <circle class="cls-2" cx="301.93" cy="61.22" r="10.72"/>
      <polygon class="cls-2" points="205.09 118.95 199.56 53.81 251.28 87.86 248.31 92.38 205.89 64.46 210.48 118.49 205.09 118.95"/>
      <polygon class="cls-2" points="267.52 63.48 215.75 29.4 268.56 7.38 270.65 12.38 227.23 30.48 270.5 58.96 267.52 63.48"/>
      <polygon class="cls-2" points="304.73 65.42 301.91 60.8 351.62 30.44 302.31 10.6 304.33 5.58 363.65 29.44 304.73 65.42"/>
      <polygon class="cls-2" points="371.05 118.99 365.67 118.44 371.16 64.46 327.82 92.39 324.89 87.84 377.68 53.81 371.05 118.99"/>
      <polygon class="cls-2" points="300.33 180.62 303.69 113.81 309.1 114.08 306.3 169.62 346.81 140.36 349.99 144.74 300.33 180.62"/>
      <polygon class="cls-2" points="276.64 180.61 226.98 144.74 230.15 140.36 270.67 169.62 267.87 114.08 273.28 113.81 276.64 180.61"/>
    </g>
    <g>
      <path class="cls-2" d="m238.36,239.31h27.85l2.46,14.59h.85c9.7-9.31,21.31-17.37,37.02-17.37,25.05,0,35.74,17.68,35.74,46.48v71.53h-34.14v-67.16c0-16.58-4.45-21.77-14.31-21.77-8.58,0-13.82,3.99-21.33,11.2v77.73h-34.14v-115.22Z"/>
      <path class="cls-2" d="m108.42,270.65c-.23-18.88-17.86-34.12-39.59-34.12-10.22,0-19.5,3.4-26.52,8.93v-39.75H0v148.83h42.3v-73.83c0-6.64,5.38-12.02,12.02-12.02s12.02,5.38,12.02,12.02v73.83h42.1v-83.89h-.02Z"/>
      <path class="cls-2" d="m554.41,245.17v-.09c-.35-.26-.72-.48-1.07-.73-1.97-1.41-4.11-2.62-6.39-3.64-.27-.12-.55-.24-.82-.36-.64-.27-1.26-.55-1.93-.79-26.85-10.34-66.76.3-66.76.3l2.98,34.57,13.05-3.32c34.42-10.33,36.91,4.87,36.98,8.93-72.23-1.24-58.01,48.4-58.01,48.4h.02c2.49,16.4,15.07,28.61,33.79,28.61,12.92,0,23.77-6.05,33.44-14.55h.85l2.45,11.77h27.79v-65.73c0-20.77-5.7-35.09-16.37-43.37Zm-24.11,73.45c-4.25,4.23-7.89,6.91-13.31,6.91-5.69,0-9.27-2.55-9.27-7.75,0-6.11,5.55-10.97,22.57-13.27v14.11Z"/>
      <path class="cls-2" d="m206.76,245.17v-.09c-.35-.26-.72-.48-1.07-.73-1.97-1.41-4.11-2.62-6.39-3.64-.27-.12-.55-.24-.82-.36-.64-.27-1.26-.55-1.93-.79-26.85-10.34-66.76.3-66.76.3l2.98,34.57,13.05-3.32c34.42-10.33,36.91,4.87,36.98,8.93-72.23-1.24-58.01,48.4-58.01,48.4h.02c2.49,16.4,15.07,28.61,33.79,28.61,12.92,0,23.77-6.05,33.44-14.55h.85l2.45,11.77h27.79v-65.73c0-20.77-5.7-35.09-16.37-43.37Zm-25.54,74.45c-4.57,4.55-8.48,7.43-14.31,7.43-6.12,0-9.97-2.74-9.97-8.34,0-6.57,5.97-11.8,24.28-14.27v15.17Z"/>
      <path class="cls-2" d="m421.48,314.73h-17.53c-9.21,0-10.72-1.58-10.76-1.91,0-.62.02-1.04.14-1.42,3.96.88,7.79,1.33,11.41,1.33,29.58,0,47.96-14.95,47.96-39.01,0-2.03-.26-4.05-.64-6.03l16.1-13.12-11.97-19.52-19.62,5.37c-7.25-5.27-14.27-6.87-14.27-6.87-5.3-1.58-11.35-2.42-17.55-2.42-29.51,0-50.11,17.11-50.11,41.6,0,11.31,5.41,20.4,11.72,26.34-5.82,5.5-9.26,12.45-9.26,19.14s2.23,12.23,6.53,16.8c-9.74,7.05-11.98,15.15-11.98,21.12,0,19.26,18.92,30.76,50.62,30.76,39.42,0,65.91-16.6,65.91-41.32,0-20.46-15.71-30.84-46.68-30.84Zm-13.74-51.63c5.81,0,10.53,4.71,10.53,10.53s-4.71,10.53-10.53,10.53-10.53-4.71-10.53-10.53,4.71-10.53,10.53-10.53Zm-.39,94.36c-10.92,0-18.54-2.49-18.54-6.06,0-1,.27-2.24,1.97-3.97,3.5.59,7.7.85,13.61.85h11.22c11.06,0,11.06,1.76,11.06,2.34,0,2.39-6.63,6.84-19.32,6.84Z"/>
    </g>
  </g>
  <g>
    <path class="cls-1" d="m22.93,412.91c-7.54,0-11.31,2.64-11.31,7.92,0,2.73.89,4.67,2.67,5.83,1.78,1.16,5.71,2.58,11.8,4.27,6.08,1.69,10.37,3.71,12.87,6.05,2.49,2.35,3.74,6.04,3.74,11.08,0,6.41-1.83,11.2-5.48,14.38-3.65,3.18-8.62,4.76-14.91,4.76-5.05,0-10.62-.59-16.74-1.78l-3.21-.62.98-7.92c8.01,1.07,14.13,1.6,18.34,1.6,7.36,0,11.04-3.26,11.04-9.79,0-2.55-.83-4.44-2.49-5.65-1.66-1.22-5.4-2.55-11.22-4.01-5.82-1.45-10.15-3.46-13-6.01-2.85-2.55-4.27-6.59-4.27-12.11s1.79-9.69,5.39-12.51c3.59-2.82,8.56-4.23,14.91-4.23,4.57,0,9.97.53,16.2,1.6l3.12.53-.8,8.01c-8.31-.95-14.19-1.42-17.63-1.42Z"/>
    <path class="cls-1" d="m75.55,430h-12.29v19.59c0,3.62.27,6.03.8,7.21.53,1.19,1.9,1.78,4.09,1.78l7.3-.27.45,7.75c-3.98.77-7,1.16-9.08,1.16-5.05,0-8.5-1.16-10.37-3.47-1.87-2.31-2.8-6.68-2.8-13.09v-20.66h-5.7v-8.28h5.7v-12.91h9.62v12.91h12.29v8.28Z"/>
    <path class="cls-1" d="m116.41,435.43v20.3c.06,1.31.4,2.27,1.02,2.89s1.59,1.02,2.89,1.2l-.27,7.39c-5.11,0-9.05-1.1-11.84-3.29-4.75,2.2-9.53,3.29-14.33,3.29-8.84,0-13.27-4.72-13.27-14.16,0-4.51,1.2-7.78,3.61-9.79,2.4-2.02,6.1-3.23,11.08-3.65l11.48-.98v-3.21c0-2.37-.52-4.04-1.56-4.99-1.04-.95-2.57-1.42-4.58-1.42-3.8,0-8.55.24-14.25.71l-2.85.18-.36-6.86c6.47-1.54,12.42-2.31,17.85-2.31s9.35,1.17,11.75,3.52c2.4,2.35,3.61,6.07,3.61,11.17Zm-19.94,11.04c-4.1.36-6.14,2.58-6.14,6.68s1.81,6.14,5.43,6.14c2.97,0,6.11-.47,9.44-1.42l1.6-.53v-11.84l-10.33.98Z"/>
    <path class="cls-1" d="m128.61,466.24v-44.52h9.62v5.34c5.04-3.26,10.09-5.37,15.14-6.32v9.7c-5.11,1.01-9.47,2.32-13.09,3.92l-1.96.8v31.07h-9.7Z"/>
    <path class="cls-1" d="m184.7,430h-12.29v19.59c0,3.62.27,6.03.8,7.21.53,1.19,1.9,1.78,4.09,1.78l7.3-.27.45,7.75c-3.98.77-7,1.16-9.08,1.16-5.05,0-8.5-1.16-10.37-3.47-1.87-2.31-2.8-6.68-2.8-13.09v-20.66h-5.7v-8.28h5.7v-12.91h9.62v12.91h12.29v8.28Z"/>
    <path class="cls-1" d="m219.6,421.72h9.62v44.52h-9.62v-2.76c-4.33,2.49-8.34,3.74-12.02,3.74-6.11,0-10.21-1.65-12.29-4.94-2.08-3.29-3.12-9.07-3.12-17.32v-23.24h9.71v23.33c0,5.34.44,8.93,1.33,10.77.89,1.84,2.97,2.76,6.23,2.76s6.14-.59,8.81-1.78l1.33-.53v-34.54Z"/>
    <path class="cls-1" d="m240.96,485.38v-63.66h9.62v2.76c4.1-2.49,7.92-3.74,11.49-3.74,5.88,0,10.18,1.8,12.91,5.39,2.73,3.59,4.1,9.62,4.1,18.07s-1.56,14.41-4.67,17.85c-3.12,3.44-8.21,5.16-15.27,5.16-2.43,0-5.25-.27-8.46-.8v18.96h-9.7Zm19.41-56c-2.79,0-5.58.62-8.37,1.87l-1.34.62v26.26c2.37.48,4.99.71,7.83.71,4.04,0,6.83-1.16,8.37-3.47,1.54-2.31,2.32-6.26,2.32-11.84,0-9.44-2.94-14.16-8.81-14.16Z"/>
    <path class="cls-1" d="m329.99,467.22c-8.9,0-14.94-2.46-18.12-7.39-3.18-4.93-4.76-13.03-4.76-24.31s1.6-19.3,4.81-24.08c3.21-4.78,9.23-7.17,18.07-7.17,5.28,0,11.1.74,17.45,2.23l-.36,8.01c-5.34-.95-10.68-1.42-16.03-1.42s-8.96,1.59-10.86,4.76c-1.9,3.18-2.85,9.14-2.85,17.9s.92,14.72,2.76,17.9c1.84,3.18,5.43,4.76,10.77,4.76s10.74-.45,16.2-1.33l.27,8.19c-6.11,1.3-11.9,1.96-17.36,1.96Z"/>
    <path class="cls-1" d="m387.69,458.22l2.49-.27.18,7.21c-6.77,1.36-12.76,2.05-17.98,2.05-6.59,0-11.32-1.81-14.2-5.43-2.88-3.62-4.32-9.41-4.32-17.36,0-15.79,6.44-23.68,19.32-23.68s18.7,6.8,18.7,20.39l-.62,6.95h-27.6c.06,3.68.86,6.38,2.4,8.1,1.54,1.72,4.42,2.58,8.64,2.58s8.55-.18,13-.53Zm-5.34-17.63c0-4.39-.7-7.46-2.09-9.21-1.4-1.75-3.75-2.63-7.08-2.63s-5.74.92-7.26,2.76c-1.51,1.84-2.3,4.87-2.36,9.08h18.79Z"/>
    <path class="cls-1" d="m410.92,466.24h-9.7v-44.52h9.62v2.76c4.33-2.49,8.43-3.74,12.29-3.74,5.93,0,9.99,1.68,12.15,5.03,2.17,3.35,3.25,8.89,3.25,16.6v23.86h-9.62v-23.59c0-4.81-.52-8.22-1.56-10.24-1.04-2.02-3.16-3.03-6.37-3.03-3.03,0-5.94.59-8.73,1.78l-1.34.53v34.54Z"/>
    <path class="cls-1" d="m473.78,430h-12.29v19.59c0,3.62.27,6.03.8,7.21.53,1.19,1.9,1.78,4.09,1.78l7.3-.27.45,7.75c-3.98.77-7,1.16-9.08,1.16-5.05,0-8.5-1.16-10.37-3.47-1.87-2.31-2.8-6.68-2.8-13.09v-20.66h-5.7v-8.28h5.7v-12.91h9.62v12.91h12.29v8.28Z"/>
    <path class="cls-1" d="m481.7,466.24v-44.52h9.62v5.34c5.04-3.26,10.09-5.37,15.14-6.32v9.7c-5.11,1.01-9.47,2.32-13.09,3.92l-1.96.8v31.07h-9.7Z"/>
    <path class="cls-1" d="m546.78,435.43v20.3c.06,1.31.4,2.27,1.02,2.89s1.59,1.02,2.89,1.2l-.27,7.39c-5.11,0-9.05-1.1-11.84-3.29-4.75,2.2-9.53,3.29-14.33,3.29-8.84,0-13.27-4.72-13.27-14.16,0-4.51,1.2-7.78,3.61-9.79,2.4-2.02,6.1-3.23,11.08-3.65l11.48-.98v-3.21c0-2.37-.52-4.04-1.56-4.99-1.04-.95-2.57-1.42-4.58-1.42-3.8,0-8.55.24-14.25.71l-2.85.18-.36-6.86c6.47-1.54,12.42-2.31,17.85-2.31s9.35,1.17,11.75,3.52c2.4,2.35,3.61,6.07,3.61,11.17Zm-19.94,11.04c-4.1.36-6.14,2.58-6.14,6.68s1.81,6.14,5.43,6.14c2.97,0,6.11-.47,9.44-1.42l1.6-.53v-11.84l-10.33.98Z"/>
    <path class="cls-1" d="m559.51,466.24v-63.03h9.7v63.03h-9.7Z"/>
  </g>
</svg>